<mxfile host="app.diagrams.net" modified="2024-02-28T08:53:29.536Z" agent="Mozilla/5.0 (Windows NT 10.0; Win64; x64) AppleWebKit/537.36 (KHTML, like Gecko) Chrome/122.0.0.0 Safari/537.36 Edg/122.0.0.0" etag="S76BgHUQC25KSBjJOUnG" version="23.1.6" type="github">
  <diagram name="第 1 页" id="pQV_JR3-XfKjv_0c4IRN">
    <mxGraphModel dx="1713" dy="808" grid="1" gridSize="10" guides="1" tooltips="1" connect="1" arrows="1" fold="1" page="1" pageScale="1" pageWidth="827" pageHeight="1169" math="0" shadow="0">
      <root>
        <mxCell id="0" />
        <mxCell id="1" parent="0" />
        <mxCell id="2aAzPe1vaFxSF1Ecl9lj-1" value="" style="swimlane;startSize=0;" vertex="1" parent="1">
          <mxGeometry x="171.35" y="537.5" width="450" height="462.5" as="geometry">
            <mxRectangle x="70" y="400" width="50" height="40" as="alternateBounds" />
          </mxGeometry>
        </mxCell>
        <mxCell id="2aAzPe1vaFxSF1Ecl9lj-2" value="输出窗口" style="rounded=0;whiteSpace=wrap;html=1;" vertex="1" parent="2aAzPe1vaFxSF1Ecl9lj-1">
          <mxGeometry x="317.5" y="235" width="80" height="97.5" as="geometry" />
        </mxCell>
        <mxCell id="2aAzPe1vaFxSF1Ecl9lj-3" value="Qt" style="rounded=0;whiteSpace=wrap;html=1;" vertex="1" parent="2aAzPe1vaFxSF1Ecl9lj-1">
          <mxGeometry x="30" y="432.5" width="60" height="30" as="geometry" />
        </mxCell>
        <mxCell id="2aAzPe1vaFxSF1Ecl9lj-4" value="OpenGL" style="rounded=0;whiteSpace=wrap;html=1;" vertex="1" parent="2aAzPe1vaFxSF1Ecl9lj-1">
          <mxGeometry x="305" y="432.5" width="105" height="30" as="geometry" />
        </mxCell>
        <mxCell id="2aAzPe1vaFxSF1Ecl9lj-5" value="属性窗口" style="rounded=0;whiteSpace=wrap;html=1;" vertex="1" parent="2aAzPe1vaFxSF1Ecl9lj-1">
          <mxGeometry x="10" y="235" width="80" height="97.5" as="geometry" />
        </mxCell>
        <mxCell id="2aAzPe1vaFxSF1Ecl9lj-6" value="" style="whiteSpace=wrap;html=1;aspect=fixed;" vertex="1" parent="2aAzPe1vaFxSF1Ecl9lj-1">
          <mxGeometry x="10" y="46.5" width="173.5" height="173.5" as="geometry" />
        </mxCell>
        <mxCell id="2aAzPe1vaFxSF1Ecl9lj-7" value="&lt;font style=&quot;font-size: 14px;&quot;&gt;模型历史树&lt;/font&gt;" style="rounded=0;whiteSpace=wrap;html=1;" vertex="1" parent="2aAzPe1vaFxSF1Ecl9lj-1">
          <mxGeometry x="50" y="56.5" width="80" height="30" as="geometry" />
        </mxCell>
        <mxCell id="2aAzPe1vaFxSF1Ecl9lj-8" value="鼠标左键单击" style="rounded=0;whiteSpace=wrap;html=1;" vertex="1" parent="2aAzPe1vaFxSF1Ecl9lj-1">
          <mxGeometry x="10" y="106.5" width="80" height="30" as="geometry" />
        </mxCell>
        <mxCell id="2aAzPe1vaFxSF1Ecl9lj-9" value="鼠标左键双击" style="rounded=0;whiteSpace=wrap;html=1;" vertex="1" parent="2aAzPe1vaFxSF1Ecl9lj-1">
          <mxGeometry x="100" y="106.5" width="80" height="30" as="geometry" />
        </mxCell>
        <mxCell id="2aAzPe1vaFxSF1Ecl9lj-10" value="空格按下信号" style="rounded=0;whiteSpace=wrap;html=1;" vertex="1" parent="2aAzPe1vaFxSF1Ecl9lj-1">
          <mxGeometry x="10" y="156.5" width="80" height="30" as="geometry" />
        </mxCell>
        <mxCell id="2aAzPe1vaFxSF1Ecl9lj-11" value="鼠标右键单击" style="rounded=0;whiteSpace=wrap;html=1;" vertex="1" parent="2aAzPe1vaFxSF1Ecl9lj-1">
          <mxGeometry x="100" y="156.5" width="80" height="30" as="geometry" />
        </mxCell>
        <mxCell id="2aAzPe1vaFxSF1Ecl9lj-12" value="" style="endArrow=none;html=1;rounded=0;exitX=0;exitY=0.25;exitDx=0;exitDy=0;entryX=1;entryY=0.25;entryDx=0;entryDy=0;" edge="1" parent="2aAzPe1vaFxSF1Ecl9lj-1" source="2aAzPe1vaFxSF1Ecl9lj-6" target="2aAzPe1vaFxSF1Ecl9lj-6">
          <mxGeometry width="50" height="50" relative="1" as="geometry">
            <mxPoint x="60" y="146.5" as="sourcePoint" />
            <mxPoint x="110" y="96.5" as="targetPoint" />
          </mxGeometry>
        </mxCell>
        <mxCell id="2aAzPe1vaFxSF1Ecl9lj-13" value="" style="rounded=0;whiteSpace=wrap;html=1;" vertex="1" parent="2aAzPe1vaFxSF1Ecl9lj-1">
          <mxGeometry x="230" y="46.5" width="180" height="173.5" as="geometry" />
        </mxCell>
        <mxCell id="2aAzPe1vaFxSF1Ecl9lj-14" value="&lt;font style=&quot;font-size: 14px;&quot;&gt;模型空间&lt;/font&gt;" style="rounded=0;whiteSpace=wrap;html=1;" vertex="1" parent="2aAzPe1vaFxSF1Ecl9lj-1">
          <mxGeometry x="270" y="56.5" width="80" height="30" as="geometry" />
        </mxCell>
        <mxCell id="2aAzPe1vaFxSF1Ecl9lj-15" value="鼠标左键单击" style="rounded=0;whiteSpace=wrap;html=1;" vertex="1" parent="2aAzPe1vaFxSF1Ecl9lj-1">
          <mxGeometry x="230" y="116.5" width="80" height="30" as="geometry" />
        </mxCell>
        <mxCell id="2aAzPe1vaFxSF1Ecl9lj-16" value="鼠标右键单击" style="rounded=0;whiteSpace=wrap;html=1;" vertex="1" parent="2aAzPe1vaFxSF1Ecl9lj-1">
          <mxGeometry x="230" y="166.5" width="80" height="30" as="geometry" />
        </mxCell>
        <mxCell id="2aAzPe1vaFxSF1Ecl9lj-17" value="鼠标左键移动" style="rounded=0;whiteSpace=wrap;html=1;" vertex="1" parent="2aAzPe1vaFxSF1Ecl9lj-1">
          <mxGeometry x="330" y="116.5" width="80" height="30" as="geometry" />
        </mxCell>
        <mxCell id="2aAzPe1vaFxSF1Ecl9lj-18" value="鼠标中键移动" style="rounded=0;whiteSpace=wrap;html=1;" vertex="1" parent="2aAzPe1vaFxSF1Ecl9lj-1">
          <mxGeometry x="330" y="166.5" width="80" height="30" as="geometry" />
        </mxCell>
        <mxCell id="2aAzPe1vaFxSF1Ecl9lj-19" value="" style="endArrow=none;html=1;rounded=0;exitX=1;exitY=0.25;exitDx=0;exitDy=0;entryX=0;entryY=0.25;entryDx=0;entryDy=0;" edge="1" parent="2aAzPe1vaFxSF1Ecl9lj-1" source="2aAzPe1vaFxSF1Ecl9lj-13" target="2aAzPe1vaFxSF1Ecl9lj-13">
          <mxGeometry width="50" height="50" relative="1" as="geometry">
            <mxPoint x="270" y="145.78932188134513" as="sourcePoint" />
            <mxPoint x="270" y="95.78932188134524" as="targetPoint" />
          </mxGeometry>
        </mxCell>
        <mxCell id="2aAzPe1vaFxSF1Ecl9lj-20" value="" style="rounded=0;whiteSpace=wrap;html=1;" vertex="1" parent="2aAzPe1vaFxSF1Ecl9lj-1">
          <mxGeometry x="130" y="232.5" width="170" height="160" as="geometry" />
        </mxCell>
        <mxCell id="2aAzPe1vaFxSF1Ecl9lj-21" value="任务窗口" style="rounded=0;whiteSpace=wrap;html=1;" vertex="1" parent="2aAzPe1vaFxSF1Ecl9lj-1">
          <mxGeometry x="175" y="242.5" width="80" height="30" as="geometry" />
        </mxCell>
        <mxCell id="2aAzPe1vaFxSF1Ecl9lj-22" value="" style="endArrow=none;html=1;rounded=0;exitX=0;exitY=0.5;exitDx=0;exitDy=0;entryX=1;entryY=0.5;entryDx=0;entryDy=0;" edge="1" parent="2aAzPe1vaFxSF1Ecl9lj-1">
          <mxGeometry width="50" height="50" relative="1" as="geometry">
            <mxPoint x="129.99999999999955" y="282.5" as="sourcePoint" />
            <mxPoint x="299.99999999999955" y="282.5" as="targetPoint" />
          </mxGeometry>
        </mxCell>
        <mxCell id="2aAzPe1vaFxSF1Ecl9lj-23" value="参数调整信号" style="rounded=0;whiteSpace=wrap;html=1;" vertex="1" parent="2aAzPe1vaFxSF1Ecl9lj-1">
          <mxGeometry x="175" y="292.5" width="80" height="30" as="geometry" />
        </mxCell>
        <mxCell id="2aAzPe1vaFxSF1Ecl9lj-24" value="确认创建信号" style="rounded=0;whiteSpace=wrap;html=1;" vertex="1" parent="2aAzPe1vaFxSF1Ecl9lj-1">
          <mxGeometry x="130" y="332.5" width="80" height="30" as="geometry" />
        </mxCell>
        <mxCell id="2aAzPe1vaFxSF1Ecl9lj-25" value="取消创建信号" style="rounded=0;whiteSpace=wrap;html=1;" vertex="1" parent="2aAzPe1vaFxSF1Ecl9lj-1">
          <mxGeometry x="220" y="332.5" width="80" height="30" as="geometry" />
        </mxCell>
        <mxCell id="2aAzPe1vaFxSF1Ecl9lj-39" style="edgeStyle=orthogonalEdgeStyle;rounded=0;orthogonalLoop=1;jettySize=auto;html=1;exitX=0.5;exitY=0;exitDx=0;exitDy=0;" edge="1" parent="2aAzPe1vaFxSF1Ecl9lj-1" source="2aAzPe1vaFxSF1Ecl9lj-36">
          <mxGeometry relative="1" as="geometry">
            <mxPoint x="210" y="402.5" as="targetPoint" />
          </mxGeometry>
        </mxCell>
        <mxCell id="2aAzPe1vaFxSF1Ecl9lj-36" value="OpenCASCADE库" style="rounded=0;whiteSpace=wrap;html=1;" vertex="1" parent="2aAzPe1vaFxSF1Ecl9lj-1">
          <mxGeometry x="160" y="432.5" width="107.5" height="30" as="geometry" />
        </mxCell>
        <mxCell id="2aAzPe1vaFxSF1Ecl9lj-35" value="" style="endArrow=none;html=1;rounded=0;edgeStyle=orthogonalEdgeStyle;exitX=0.5;exitY=0;exitDx=0;exitDy=0;" edge="1" parent="2aAzPe1vaFxSF1Ecl9lj-1" source="2aAzPe1vaFxSF1Ecl9lj-3">
          <mxGeometry width="50" height="50" relative="1" as="geometry">
            <mxPoint x="100" y="462.5" as="sourcePoint" />
            <mxPoint x="210" y="402.5" as="targetPoint" />
          </mxGeometry>
        </mxCell>
        <mxCell id="2aAzPe1vaFxSF1Ecl9lj-27" value="&lt;font style=&quot;font-size: 18px;&quot;&gt;视图&lt;/font&gt;" style="text;html=1;strokeColor=none;fillColor=none;align=center;verticalAlign=middle;whiteSpace=wrap;rounded=0;" vertex="1" parent="1">
          <mxGeometry x="351.35" y="500" width="60" height="30" as="geometry" />
        </mxCell>
        <mxCell id="2aAzPe1vaFxSF1Ecl9lj-28" value="" style="endArrow=none;html=1;rounded=0;exitX=-0.003;exitY=0.873;exitDx=0;exitDy=0;exitPerimeter=0;entryX=0.998;entryY=0.877;entryDx=0;entryDy=0;entryPerimeter=0;" edge="1" parent="1" source="2aAzPe1vaFxSF1Ecl9lj-1" target="2aAzPe1vaFxSF1Ecl9lj-1">
          <mxGeometry width="50" height="50" relative="1" as="geometry">
            <mxPoint x="401.35" y="980" as="sourcePoint" />
            <mxPoint x="451.35" y="930" as="targetPoint" />
          </mxGeometry>
        </mxCell>
        <mxCell id="2aAzPe1vaFxSF1Ecl9lj-29" value="" style="endArrow=classic;html=1;rounded=0;exitX=0.5;exitY=0;exitDx=0;exitDy=0;edgeStyle=orthogonalEdgeStyle;" edge="1" parent="1" source="2aAzPe1vaFxSF1Ecl9lj-4">
          <mxGeometry width="50" height="50" relative="1" as="geometry">
            <mxPoint x="271.35" y="995.5" as="sourcePoint" />
            <mxPoint x="381.35" y="940" as="targetPoint" />
          </mxGeometry>
        </mxCell>
      </root>
    </mxGraphModel>
  </diagram>
</mxfile>
